<svg id="Capa_1" data-name="Capa 1" xmlns="http://www.w3.org/2000/svg" xmlns:xlink="http://www.w3.org/1999/xlink" viewBox="0 0 668.34 193.15"><defs><style>.cls-1{fill:#1d1d1b;}.cls-2{clip-path:url(#clip-path);}.cls-3{clip-path:url(#clip-path-2);}.cls-4{clip-path:url(#clip-path-3);}.cls-5{clip-path:url(#clip-path-4);}.cls-6{clip-path:url(#clip-path-5);}.cls-7{clip-path:url(#clip-path-6);}.cls-8{clip-path:url(#clip-path-7);}</style><clipPath id="clip-path"><path class="cls-1" d="M143.09,46.55q-16.34,0-26.28,4.67-10.89,5.12-16.88,17.49t-6,29.78q0,28.47,13.69,41.52a33.53,33.53,0,0,0,13.61,8q7.55,2.25,20.91,2.26h36.08v-5.2a13.3,13.3,0,0,0-13.3-13.31h-18.5q-15.44,0-21.83-7.85t-6.39-26.83q0-17.41,6.31-24.73t21.13-7.31h17.69a14.89,14.89,0,0,0,14.89-14.89V46.55Z"/></clipPath><clipPath id="clip-path-2"><path class="cls-1" d="M465.36,46.55q-16.32,0-26.28,4.67-10.89,5.12-16.88,17.49t-6,29.78q0,28.47,13.69,41.52a33.47,33.47,0,0,0,13.61,8q7.55,2.25,20.91,2.26H500.5v-5.2a13.3,13.3,0,0,0-13.3-13.31H468.7q-15.43,0-21.83-7.85t-6.39-26.83q0-17.41,6.31-24.73t21.13-7.31h17.69A14.89,14.89,0,0,0,500.5,50.16V46.55Z"/></clipPath><clipPath id="clip-path-3"><path class="cls-1" d="M209.1,125q-6.61-8.48-6.61-26.83T209,71.59q6.45-8.25,20.92-8.24,26.43,0,26.44,35t-26.44,35.14q-14.16,0-20.77-8.47M178.23,99q0,25.52,13.31,38.72t39.11,13.22q24.4,0,37.16-12.83t12.75-37.4q0-28.15-12.43-41.53T229.4,45.77q-51.17,0-51.17,53.19"/></clipPath><clipPath id="clip-path-4"><path class="cls-1" d="M372.35,46.55a17.77,17.77,0,0,0-16.53,11.23l-26.5,66.84L303.23,57.78a17.66,17.66,0,0,0-16.45-11.23H274l43.7,103.73h22.08L385.15,46.55Z"/></clipPath><clipPath id="clip-path-5"><path class="cls-1" d="M385.15,68.63v81.65h22.09V46.55a22.08,22.08,0,0,0-22.09,22.08"/></clipPath><clipPath id="clip-path-6"><path class="cls-1" d="M531.37,125q-6.6-8.48-6.6-26.83t6.45-26.59q6.45-8.25,20.92-8.24,26.43,0,26.44,35t-26.44,35.14q-14.16,0-20.77-8.47M500.5,99q0,25.52,13.3,38.72t39.12,13.22q24.41,0,37.16-12.83t12.75-37.4q0-28.15-12.43-41.53T551.67,45.77Q500.5,45.77,500.5,99"/></clipPath><clipPath id="clip-path-7"><polygon class="cls-1" points="0 108.23 82.14 193.16 82.14 151.69 40.07 108.23 82.14 64.51 82.14 23.06 0 108.23"/></clipPath></defs><path class="cls-1" d="M143.09,46.55q-16.34,0-26.28,4.67-10.89,5.12-16.88,17.49t-6,29.78q0,28.47,13.69,41.52a33.53,33.53,0,0,0,13.61,8q7.55,2.25,20.91,2.26h36.08v-5.2a13.3,13.3,0,0,0-13.3-13.31h-18.5q-15.44,0-21.83-7.85t-6.39-26.83q0-17.41,6.31-24.73t21.13-7.31h17.69a14.89,14.89,0,0,0,14.89-14.89V46.55Z"/><g class="cls-2"><rect class="cls-1" x="92.38" y="45.28" width="87.43" height="106.26" transform="translate(-2.95 4.21) rotate(-1.75)"/></g><path class="cls-1" d="M465.36,46.55q-16.32,0-26.28,4.67-10.89,5.12-16.88,17.49t-6,29.78q0,28.47,13.69,41.52a33.47,33.47,0,0,0,13.61,8q7.55,2.25,20.91,2.26H500.5v-5.2a13.3,13.3,0,0,0-13.3-13.31H468.7q-15.43,0-21.83-7.85t-6.39-26.83q0-17.41,6.31-24.73t21.13-7.31h17.69A14.89,14.89,0,0,0,500.5,50.16V46.55Z"/><g class="cls-3"><rect class="cls-1" x="414.65" y="45.28" width="87.42" height="106.26" transform="translate(-2.8 14.07) rotate(-1.75)"/></g><path class="cls-1" d="M209.1,125q-6.61-8.48-6.61-26.83T209,71.59q6.45-8.25,20.92-8.24,26.43,0,26.44,35t-26.44,35.14q-14.16,0-20.77-8.47M178.23,99q0,25.52,13.31,38.72t39.11,13.22q24.4,0,37.16-12.83t12.75-37.4q0-28.15-12.43-41.53T229.4,45.77q-51.17,0-51.17,53.19"/><g class="cls-4"><rect class="cls-1" x="176.65" y="44.23" width="105.5" height="108.21" transform="translate(-2.9 7.07) rotate(-1.75)"/></g><path class="cls-1" d="M372.35,46.55a17.77,17.77,0,0,0-16.53,11.23l-26.5,66.84L303.23,57.78a17.66,17.66,0,0,0-16.45-11.23H274l43.7,103.73h22.08L385.15,46.55Z"/><g class="cls-5"><rect class="cls-1" x="272.4" y="44.87" width="114.32" height="107.08" transform="translate(-2.86 10.13) rotate(-1.75)"/></g><path class="cls-1" d="M385.15,68.63v81.65h22.09V46.55a22.08,22.08,0,0,0-22.09,22.08"/><g class="cls-6"><rect class="cls-1" x="383.57" y="46.23" width="25.25" height="104.36" transform="translate(-2.83 12.17) rotate(-1.75)"/></g><path class="cls-1" d="M531.37,125q-6.6-8.48-6.6-26.83t6.45-26.59q6.45-8.25,20.92-8.24,26.43,0,26.44,35t-26.44,35.14q-14.16,0-20.77-8.47M500.5,99q0,25.52,13.3,38.72t39.12,13.22q24.41,0,37.16-12.83t12.75-37.4q0-28.15-12.43-41.53T551.67,45.77Q500.5,45.77,500.5,99"/><g class="cls-7"><rect class="cls-1" x="498.92" y="44.23" width="105.5" height="108.21" transform="translate(-2.75 16.93) rotate(-1.75)"/></g><path class="cls-1" d="M237.35,15.17h5.73l-.21,13.47a36.49,36.49,0,0,1-5.05,1.55,21.48,21.48,0,0,1-4.87.58,17.16,17.16,0,0,1-6.24-1.13,15,15,0,0,1-5.06-3.21,14.61,14.61,0,0,1-3.36-4.91,15.62,15.62,0,0,1-1.2-6.13,15,15,0,0,1,1.22-6,15.39,15.39,0,0,1,3.4-4.91,15.84,15.84,0,0,1,5.09-3.3A16.26,16.26,0,0,1,233,0a23.78,23.78,0,0,1,5.24.56,15.91,15.91,0,0,1,4.34,1.62l-2,4.1a18.89,18.89,0,0,0-3.65-1.36A15.24,15.24,0,0,0,233,4.45a9.49,9.49,0,0,0-3.68.74A10.54,10.54,0,0,0,226,7.37a10.14,10.14,0,0,0-2.33,3.49,11.65,11.65,0,0,0-.86,4.53,13.14,13.14,0,0,0,.73,4.42,10.21,10.21,0,0,0,2,3.48,9,9,0,0,0,3.2,2.25,10.77,10.77,0,0,0,4.15.79,11,11,0,0,0,4.19-.77Z"/><path class="cls-1" d="M279.11.6h9.36a14,14,0,0,1,4.53.66,8.5,8.5,0,0,1,3.14,1.82,7.17,7.17,0,0,1,1.8,2.69,9.61,9.61,0,0,1,.57,3.37A7.52,7.52,0,0,1,297,13.91a8.86,8.86,0,0,1-4.19,2.93l8.43,11-4.88,2.9-8.2-11.41a2.31,2.31,0,0,0-2-1h-1.71l0,11.84h-5.6Zm8.8,13.29a6.55,6.55,0,0,0,1.54-.19A4.73,4.73,0,0,0,291,13a3.76,3.76,0,0,0,1.26-1.41,4.64,4.64,0,0,0,.49-2.26,3.77,3.77,0,0,0-1.41-3.16A5.6,5.6,0,0,0,287.78,5h-3.16l-.08,8.85Z"/><path class="cls-1" d="M359,19.49a10.67,10.67,0,0,1-3.4,8.31,12.76,12.76,0,0,1-8.78,3,12.34,12.34,0,0,1-8.68-3q-3.26-3-3.25-8.59,0-3.72.09-11.16c.06-3.3.08-5.78.08-7.43h5.47c0,1.68,0,4.19-.08,7.52q-.09,7.61-.09,11.37a6.33,6.33,0,0,0,1.86,4.81,6.52,6.52,0,0,0,4.68,1.77,6.29,6.29,0,0,0,4.88-1.88,7.35,7.35,0,0,0,1.75-5L353.73.6h5.47Z"/><path class="cls-1" d="M395.91.6h8.33c3.74,0,6.47.78,8.21,2.35a8.51,8.51,0,0,1,2.61,6.66,8.5,8.5,0,0,1-.86,3.91,7.94,7.94,0,0,1-2.35,2.82,10.26,10.26,0,0,1-3.44,1.7,15,15,0,0,1-4.13.55h-3l-.05,11.58h-5.6Zm8.21,13.55a5.52,5.52,0,0,0,3.73-1.26,4.16,4.16,0,0,0,1.48-3.32A5.2,5.2,0,0,0,409.09,8a4.09,4.09,0,0,0-.8-1.45,4.34,4.34,0,0,0-1.57-1.11A5.87,5.87,0,0,0,404.33,5h-2.91l-.08,9.11Z"/><path class="cls-1" d="M449.18,9.38a15.39,15.39,0,0,1,3.4-4.91,15.84,15.84,0,0,1,5.09-3.3A16.33,16.33,0,0,1,463.82,0a17.3,17.3,0,0,1,6.48,1.17,14.82,14.82,0,0,1,5,3.28,14.47,14.47,0,0,1,3.23,4.91,16.12,16.12,0,0,1,1.13,6,15.09,15.09,0,0,1-4.57,10.92A15.84,15.84,0,0,1,470,29.6a16.36,16.36,0,0,1-6.22,1.17,17.16,17.16,0,0,1-6.24-1.13,15.21,15.21,0,0,1-5.06-3.21,14.44,14.44,0,0,1-3.35-4.91,15.45,15.45,0,0,1-1.2-6.13,14.94,14.94,0,0,1,1.21-6m5.24,10.43a10.18,10.18,0,0,0,2.05,3.48,9.05,9.05,0,0,0,3.21,2.25,10.68,10.68,0,0,0,4.14.79,9.86,9.86,0,0,0,4.11-.86,9.55,9.55,0,0,0,3.23-2.39,11.39,11.39,0,0,0,2.07-3.52,12.19,12.19,0,0,0,.72-4.17,12.82,12.82,0,0,0-.72-4.36,10.73,10.73,0,0,0-2.05-3.49A9.11,9.11,0,0,0,468,5.26a10.46,10.46,0,0,0-4.13-.81,9.4,9.4,0,0,0-3.67.74,10.38,10.38,0,0,0-5.6,5.67,11.64,11.64,0,0,0-.85,4.53,13.13,13.13,0,0,0,.72,4.42"/><polygon class="cls-1" points="0 108.23 82.14 193.16 82.14 151.69 40.07 108.23 82.14 64.51 82.14 23.06 0 108.23"/><g class="cls-8"><rect class="cls-1" y="23.06" width="82.14" height="170.1"/></g><polygon class="cls-1" points="614.54 128.28 620.84 128.28 626.73 144.38 626.83 144.38 632.65 128.28 638.99 128.28 638.99 150.94 634.99 150.94 634.99 132.72 634.93 132.72 628.04 150.94 625.22 150.94 618.44 132.72 618.38 132.72 618.38 150.94 614.54 150.94 614.54 128.28"/><path class="cls-1" d="M644,128.28h7.88a13.76,13.76,0,0,1,3.1.34,7.93,7.93,0,0,1,2.68,1.1,5.82,5.82,0,0,1,1.87,2,6.14,6.14,0,0,1,.7,3.05,5.8,5.8,0,0,1-1.39,4,7,7,0,0,1-3.79,2.09l6.05,10.05h-4.87l-5.25-9.6H648v9.6h-4Zm7.33,9.76a11.1,11.1,0,0,0,1.73-.13,4.62,4.62,0,0,0,1.55-.48,3,3,0,0,0,1.14-1,2.93,2.93,0,0,0,.45-1.69,2.57,2.57,0,0,0-.42-1.52,3.17,3.17,0,0,0-1-.94,4.19,4.19,0,0,0-1.46-.48,10.85,10.85,0,0,0-1.58-.13H648V138Z"/><path class="cls-1" d="M663.22,148.7a2.38,2.38,0,0,1,.75-1.76,2.49,2.49,0,0,1,1.81-.74,2.57,2.57,0,0,1,1.79.71,2.22,2.22,0,0,1,.77,1.73,2.4,2.4,0,0,1-.75,1.76,2.61,2.61,0,0,1-2.79.54,2.79,2.79,0,0,1-.81-.51,2.36,2.36,0,0,1-.77-1.73"/><path class="cls-1" d="M96.14,184.29l-3.2-1,7.16-18h3.18l6.65,18-3.37,1L104.73,179H98.24Zm5.5-15.41h-.06l-2.34,7.27h4.55Z"/><polygon class="cls-1" points="120.89 165.28 124.33 165.28 124.17 180.95 131.47 180.95 131.47 183.91 120.73 183.91 120.89 165.28"/><polygon class="cls-1" points="143.13 168.24 137.91 168.24 137.93 165.28 151.75 165.28 151.72 168.24 146.58 168.24 146.44 183.91 142.99 183.91 143.13 168.24"/><path class="cls-1" d="M162.08,184.29l-3.2-1,7.16-18h3.18l6.65,18-3.37,1L170.67,179h-6.49Zm5.5-15.41h-.06l-2.34,7.27h4.55Z"/><path class="cls-1" d="M217.52,182.48a9.32,9.32,0,0,1-2.78,1.35,10.7,10.7,0,0,1-3.14.46,10,10,0,0,1-3.82-.72,9.14,9.14,0,0,1-3.1-2,8.75,8.75,0,0,1-2-3.08,10.07,10.07,0,0,1-.72-3.82,10.89,10.89,0,0,1,.7-3.93,8.8,8.8,0,0,1,5-5.11,10.13,10.13,0,0,1,3.81-.71,9.86,9.86,0,0,1,3.25.55,9,9,0,0,1,2.83,1.61L216,169.45a6.25,6.25,0,0,0-2.09-1.16,7.45,7.45,0,0,0-2.38-.43,6,6,0,0,0-2.46.5,5.44,5.44,0,0,0-1.91,1.4,6.51,6.51,0,0,0-1.23,2.11,8,8,0,0,0-.43,2.62A7.85,7.85,0,0,0,206,177a6.94,6.94,0,0,0,1.24,2.21,5.91,5.91,0,0,0,1.9,1.52,5.13,5.13,0,0,0,2.36.56,8.17,8.17,0,0,0,4.68-1.22Z"/><path class="cls-1" d="M229.72,184.29l-3.2-1,7.16-18h3.18l6.65,18-3.37,1L238.31,179h-6.49Zm5.49-15.41h-.05l-2.34,7.27h4.55Z"/><polygon class="cls-1" points="254.47 165.28 257.91 165.28 257.75 180.95 265.05 180.95 265.05 183.91 254.31 183.91 254.47 165.28"/><polygon class="cls-1" points="275.71 165.28 279.16 165.28 279 183.91 275.55 183.91 275.71 165.28"/><path class="cls-1" d="M291.38,165.28h6.14a11.6,11.6,0,0,1,4,.66,8.92,8.92,0,0,1,3.09,1.87,8.18,8.18,0,0,1,2,2.92,9.93,9.93,0,0,1,.7,3.75,9,9,0,0,1-.8,3.8,9.25,9.25,0,0,1-2.17,3,9.82,9.82,0,0,1-3.1,1.94,10.12,10.12,0,0,1-3.6.67h-6.41ZM296.93,181a6.94,6.94,0,0,0,4.91-1.71,6.21,6.21,0,0,0,1.85-4.78,7,7,0,0,0-.43-2.45,5.78,5.78,0,0,0-1.24-2,5.53,5.53,0,0,0-1.93-1.32,6.31,6.31,0,0,0-2.46-.47H294.8L294.7,181Z"/><path class="cls-1" d="M320.38,184.29l-3.2-1,7.16-18h3.18l6.65,18-3.37,1L329,179h-6.49Zm5.49-15.41h-.05l-2.34,7.27H328Z"/><path class="cls-1" d="M344.94,165.28h6.14a11.5,11.5,0,0,1,4,.66,9,9,0,0,1,3.1,1.87,8.16,8.16,0,0,1,2,2.92,9.74,9.74,0,0,1,.7,3.75,9,9,0,0,1-.79,3.8,9.25,9.25,0,0,1-2.17,3,9.87,9.87,0,0,1-3.11,1.94,10.07,10.07,0,0,1-3.59.67h-6.41ZM350.48,181a7,7,0,0,0,4.92-1.71,6.2,6.2,0,0,0,1.84-4.78,6.75,6.75,0,0,0-.43-2.45,5.78,5.78,0,0,0-1.24-2,5.49,5.49,0,0,0-1.92-1.32,6.38,6.38,0,0,0-2.46-.47h-2.83L348.25,181Z"/><polygon class="cls-1" points="388.05 165.28 398.01 165.28 398.01 168.24 391.49 168.24 391.44 173.03 397.9 173.03 397.9 175.83 391.41 175.83 391.38 180.95 398.01 180.95 398.01 183.91 387.86 183.91 388.05 165.28"/><polygon class="cls-1" points="409.56 165.87 412.76 164.9 421.46 179.17 421.51 179.17 421.3 165.28 424.75 165.28 424.59 183.32 421.11 184.29 412.63 170.1 412.57 170.15 412.85 183.91 409.4 183.91 409.56 165.87"/><polygon class="cls-1" points="450.92 166 454.39 164.9 459.15 179.55 459.21 179.55 464.57 164.9 467.91 166 460.8 183.91 457.57 183.91 450.92 166"/><polygon class="cls-1" points="478.57 165.28 482.02 165.28 481.86 183.91 478.41 183.91 478.57 165.28"/><path class="cls-1" d="M494.24,165.28h6.14a11.5,11.5,0,0,1,4,.66,8.87,8.87,0,0,1,3.1,1.87,8.31,8.31,0,0,1,2,2.92,9.93,9.93,0,0,1,.69,3.75,9,9,0,0,1-.79,3.8,9.25,9.25,0,0,1-2.17,3,9.76,9.76,0,0,1-3.11,1.94,10,10,0,0,1-3.59.67h-6.41ZM499.79,181a6.94,6.94,0,0,0,4.91-1.71,6.21,6.21,0,0,0,1.85-4.78,6.75,6.75,0,0,0-.44-2.45,5.61,5.61,0,0,0-1.23-2,5.53,5.53,0,0,0-1.93-1.32,6.31,6.31,0,0,0-2.46-.47h-2.83L497.55,181Z"/><path class="cls-1" d="M521.79,165.28h5.89a8.75,8.75,0,0,1,2.86.42,5.24,5.24,0,0,1,2,1.14,4.61,4.61,0,0,1,1.13,1.7,6,6,0,0,1,.36,2.12,4.76,4.76,0,0,1-1,3,5.55,5.55,0,0,1-2.64,1.84l5.31,7-3.07,1.83-5.17-7.19a1.46,1.46,0,0,0-1.24-.65h-1.08l0,7.46H521.6Zm5.54,8.37a4.22,4.22,0,0,0,1-.12,3.15,3.15,0,0,0,1-.44,2.44,2.44,0,0,0,.79-.89,2.91,2.91,0,0,0,.31-1.43,2.39,2.39,0,0,0-.88-2,3.55,3.55,0,0,0-2.27-.7h-2l0,5.57Z"/><polygon class="cls-1" points="546.18 165.28 549.63 165.28 549.47 183.91 546.02 183.91 546.18 165.28"/><path class="cls-1" d="M561.62,170.81a9.78,9.78,0,0,1,2.14-3.1,10.18,10.18,0,0,1,3.21-2.07,10.29,10.29,0,0,1,3.87-.74,10.93,10.93,0,0,1,4.08.74,9.45,9.45,0,0,1,3.17,2.06,9.17,9.17,0,0,1,2,3.1,10.18,10.18,0,0,1,.71,3.79,9.6,9.6,0,0,1-.75,3.79,9.29,9.29,0,0,1-2.13,3.09,10,10,0,0,1-3.19,2.08,10.36,10.36,0,0,1-3.92.74,10.64,10.64,0,0,1-3.93-.72,9.53,9.53,0,0,1-3.19-2,9.09,9.09,0,0,1-2.11-3.09,9.93,9.93,0,0,1-.76-3.87,9.43,9.43,0,0,1,.77-3.78m3.3,6.57a6.43,6.43,0,0,0,1.29,2.2,5.93,5.93,0,0,0,2,1.41,6.71,6.71,0,0,0,2.61.5,6.19,6.19,0,0,0,2.59-.54,6,6,0,0,0,2-1.51,7.08,7.08,0,0,0,1.31-2.22,7.73,7.73,0,0,0,.45-2.63,8.12,8.12,0,0,0-.45-2.74,6.61,6.61,0,0,0-1.3-2.2,5.6,5.6,0,0,0-2-1.44,6.59,6.59,0,0,0-2.6-.51,6,6,0,0,0-2.31.47,6.53,6.53,0,0,0-3.53,3.57,7.31,7.31,0,0,0-.54,2.85,8.09,8.09,0,0,0,.46,2.79"/><path class="cls-1" d="M592.49,180.22a8.42,8.42,0,0,0,1.66.89,4.46,4.46,0,0,0,1.63.38,3.05,3.05,0,0,0,2.18-.77,2.54,2.54,0,0,0,.81-1.93,2,2,0,0,0-.74-1.65,10.38,10.38,0,0,0-2.33-1.25c-.74-.33-1.34-.61-1.81-.87a6.28,6.28,0,0,1-1.34-1,4.41,4.41,0,0,1-1-1.52,5.64,5.64,0,0,1-.39-2.21,5.23,5.23,0,0,1,.44-2.12,5.08,5.08,0,0,1,1.27-1.74,5.7,5.7,0,0,1,2-1.15,7.59,7.59,0,0,1,2.53-.4,8.66,8.66,0,0,1,2.64.42,14.17,14.17,0,0,1,2.61,1.14l-1.45,2.48-.19-.11a15,15,0,0,0-1.75-.85,4.36,4.36,0,0,0-1.59-.28,3.5,3.5,0,0,0-2.15.66,2.15,2.15,0,0,0-.89,1.84,2,2,0,0,0,.78,1.7,11.81,11.81,0,0,0,2.42,1.35c.7.32,1.3.61,1.79.87a6.6,6.6,0,0,1,1.39,1,4.69,4.69,0,0,1,1,1.48,5.19,5.19,0,0,1,.38,2.06,5.45,5.45,0,0,1-.44,2.21,5.26,5.26,0,0,1-1.28,1.79,6,6,0,0,1-2,1.19,6.88,6.88,0,0,1-2.48.44,9.83,9.83,0,0,1-5.06-1.43Z"/></svg>